<svg width="280" height="280" viewBox="0 0 280 280" fill="none" xmlns="http://www.w3.org/2000/svg">
  <ellipse cx="140" cy="252" rx="84" ry="12" fill="#2430431A"/>
  <path d="M118 42C102 11 73 8 69 37C67 53 71 66 82 82L118 42Z" fill="#232328"/>
  <path d="M162 42C178 11 207 8 211 37C213 53 209 66 198 82L162 42Z" fill="#232328"/>
  <path d="M122 51C110 30 89 29 86 47C84 57 87 66 95 75L122 51Z" fill="#F6F6F8"/>
  <path d="M158 51C170 30 191 29 194 47C196 57 193 66 185 75L158 51Z" fill="#F6F6F8"/>
  <path d="M140 49C192 49 226 84 226 126C226 168 194 199 140 199C86 199 54 168 54 126C54 84 88 49 140 49Z" fill="#6A6A73"/>
  <path d="M70 118C80 92 106 71 140 71C174 71 200 92 210 118L192 145C181 136 169 130 157 127C151 126 145 126 140 126C135 126 129 126 123 127C111 130 99 136 88 145L70 118Z" fill="#FFFDF6"/>
  <path d="M79 118C93 92 112 88 127 99C122 117 111 133 93 145L72 133C73 127 76 122 79 118Z" fill="#232328"/>
  <path d="M201 118C187 92 168 88 153 99C158 117 169 133 187 145L208 133C207 127 204 122 201 118Z" fill="#232328"/>
  <ellipse cx="106" cy="111" rx="9" ry="11" fill="#17171C"/>
  <ellipse cx="174" cy="111" rx="9" ry="11" fill="#17171C"/>
  <circle cx="110" cy="108" r="3" fill="#FFFDF6"/>
  <circle cx="170" cy="108" r="3" fill="#FFFDF6"/>
  <path d="M121 140C127 134 134 131 140 131C146 131 153 134 159 140C152 156 146 164 140 164C134 164 128 156 121 140Z" fill="#FFFDF6"/>
  <ellipse cx="140" cy="135" rx="10" ry="7" fill="#18181E"/>
  <path d="M133 147C136 151 138 153 140 153C142 153 144 151 147 147" stroke="#18181E" stroke-width="4.5" stroke-linecap="round"/>
  <path d="M128 166C137 171 143 171 152 166" stroke="#18181E" stroke-width="5" stroke-linecap="round"/>
  <ellipse cx="109" cy="140" rx="9" ry="5" fill="#F6C1CF"/>
  <ellipse cx="171" cy="140" rx="9" ry="5" fill="#F6C1CF"/>
  <path d="M204 112L219 108L211 120L224 123L210 131" fill="#17171C"/>
  <path d="M79 186C79 158 99 141 123 141C133 141 138 148 140 157C142 148 147 141 157 141C181 141 201 158 201 186C201 217 177 236 140 236C103 236 79 217 79 186Z" fill="#54545D"/>
  <path d="M62 167C49 163 38 172 38 187C38 203 52 213 67 207C75 204 79 198 82 190L88 172L62 167Z" fill="#232328"/>
  <path d="M218 167C231 163 242 172 242 187C242 203 228 213 213 207C205 204 201 198 198 190L192 172L218 167Z" fill="#232328"/>
  <ellipse cx="85" cy="212" rx="18" ry="22" fill="#232328"/>
  <ellipse cx="195" cy="212" rx="18" ry="22" fill="#232328"/>
  <path d="M203 144C223 120 245 118 262 135C277 151 274 173 253 178C241 181 231 178 221 173C221 187 225 205 236 224C233 227 228 229 222 230C216 219 209 200 206 181C204 169 203 156 203 144Z" fill="#4F4F58"/>
  <path d="M212 148C227 132 242 133 252 142C261 151 259 163 246 167C238 169 230 167 223 163C223 176 226 190 233 203C231 206 228 208 224 209C216 191 212 171 212 148Z" fill="#63636C"/>
  <path d="M216 148C225 156 234 158 244 156" stroke="#232328" stroke-width="10" stroke-linecap="round"/>
  <path d="M222 170C230 177 238 180 247 179" stroke="#232328" stroke-width="10" stroke-linecap="round"/>
  <path d="M227 192C235 198 241 200 248 200" stroke="#232328" stroke-width="10" stroke-linecap="round"/>
  <g transform="translate(96 159) rotate(-6 44 34)">
    <rect x="0" y="9" width="88" height="68" rx="16" fill="#C78A4A"/>
    <rect x="8" y="17" width="72" height="52" rx="12" fill="#FFF6DE"/>
    <rect x="28" y="0" width="32" height="18" rx="8" fill="#616975"/>
    <rect x="35" y="4" width="18" height="8" rx="4" fill="#E7ECF2"/>
    <rect x="18" y="31" width="10" height="10" rx="3" fill="#73D9B3"/>
    <path d="M20 35L23 38L29 31" stroke="#FFFDF6" stroke-width="2.8" stroke-linecap="round" stroke-linejoin="round"/>
    <rect x="18" y="47" width="10" height="10" rx="3" fill="#FFC94A"/>
    <rect x="35" y="31" width="29" height="5" rx="2.5" fill="#FF7A6B"/>
    <rect x="35" y="39" width="24" height="5" rx="2.5" fill="#FFBE6B"/>
    <rect x="35" y="48" width="26" height="5" rx="2.5" fill="#7CC4F4"/>
    <rect x="35" y="56" width="19" height="5" rx="2.5" fill="#A7DCC6"/>
  </g>
  <ellipse cx="98" cy="193" rx="15" ry="13" fill="#232328"/>
  <ellipse cx="184" cy="193" rx="15" ry="13" fill="#232328"/>
  <path d="M84 186C90 180 96 181 103 186" stroke="#5A5A62" stroke-width="4" stroke-linecap="round"/>
  <path d="M177 186C183 180 189 181 196 186" stroke="#5A5A62" stroke-width="4" stroke-linecap="round"/>
</svg>
